<svg width="48" height="48" viewBox="0 0 48 48" fill="none" xmlns="http://www.w3.org/2000/svg">
<g filter="url(#filter0_d_528_540)">
<circle cx="24" cy="20" r="20" fill="#61C4A1"/>
<circle cx="24" cy="20" r="19.5" stroke="black"/>
</g>
<path d="M31.76 23.9203C30.4636 22.8869 29.148 22.261 27.8675 23.2928L27.1029 23.9164C26.5435 24.3691 25.5034 26.4842 21.482 22.1728C17.4615 17.8668 19.854 17.1963 20.4143 16.7475L21.1831 16.1231C22.4568 15.089 21.9761 13.7871 21.0574 12.447L20.5031 11.6353C19.5802 10.2983 18.5753 9.4202 17.2982 10.4528L16.6081 11.0148C16.0437 11.398 14.4659 12.6437 14.0832 15.0101C13.6226 17.8496 15.0756 21.1011 18.4044 24.6688C21.7291 28.238 24.9842 30.0308 28.0677 29.9996C30.6303 29.9738 32.1779 28.6923 32.6619 28.2263L33.3545 27.6636C34.6282 26.6317 33.8368 25.5812 32.5396 24.5455L31.76 23.9203Z" fill="white"/>
<defs>
<filter id="filter0_d_528_540" x="0" y="0" width="48" height="48" filterUnits="userSpaceOnUse" color-interpolation-filters="sRGB">
<feFlood flood-opacity="0" result="BackgroundImageFix"/>
<feColorMatrix in="SourceAlpha" type="matrix" values="0 0 0 0 0 0 0 0 0 0 0 0 0 0 0 0 0 0 127 0" result="hardAlpha"/>
<feOffset dy="4"/>
<feGaussianBlur stdDeviation="2"/>
<feComposite in2="hardAlpha" operator="out"/>
<feColorMatrix type="matrix" values="0 0 0 0 0 0 0 0 0 0 0 0 0 0 0 0 0 0 0.25 0"/>
<feBlend mode="normal" in2="BackgroundImageFix" result="effect1_dropShadow_528_540"/>
<feBlend mode="normal" in="SourceGraphic" in2="effect1_dropShadow_528_540" result="shape"/>
</filter>
</defs>
</svg>
