<svg width="30" height="28" viewBox="0 0 30 28" fill="none" xmlns="http://www.w3.org/2000/svg">
<path d="M12.0629 1.70949C13.2065 -0.345145 16.1619 -0.345142 17.3055 1.7095L19.719 6.04563C20.1547 6.82851 20.9176 7.37564 21.7989 7.53734L26.655 8.42838C29.0092 8.86034 29.9344 11.7398 28.2725 13.4622L24.9494 16.9062C24.3142 17.5644 24.0141 18.4764 24.1342 19.3832L24.7645 24.1427C25.0753 26.4899 22.6721 28.2553 20.5253 27.2568L15.9494 25.1285C15.1472 24.7553 14.2212 24.7553 13.419 25.1285L8.84309 27.2568C6.69628 28.2553 4.29303 26.4899 4.60387 24.1427L5.23419 19.3832C5.35427 18.4764 5.05413 17.5644 4.41902 16.9062L1.09588 13.4622C-0.566056 11.7398 0.359169 8.86034 2.71333 8.42838L7.5695 7.53734C8.45077 7.37564 9.21363 6.82851 9.64938 6.04562L12.0629 1.70949Z" fill="#FFB648"/>
</svg>
